{
  "asset": {
    "version": "2.0",
    "generator": "Codex generated low-poly workstation asset"
  },
  "scene": 0,
  "scenes": [
    {
      "nodes": [
        0
      ]
    }
  ],
  "nodes": [
    {
      "name": "DeveloperWorkstationRoot",
      "children": [
        1,
        2,
        3,
        4,
        5,
        6,
        7,
        8,
        9,
        10,
        11,
        12,
        13,
        14,
        15,
        16,
        17,
        18,
        19,
        20,
        21,
        22,
        23,
        24,
        25,
        26,
        27,
        28,
        29,
        30,
        31,
        32,
        33,
        34
      ]
    },
    {
      "mesh": 0,
      "name": "LaptopBase_DarkMetal",
      "translation": [
        0,
        -0.24,
        0
      ],
      "scale": [
        2.7,
        0.14,
        1.55
      ]
    },
    {
      "mesh": 0,
      "name": "LaptopTrackpad_Glass",
      "translation": [
        0,
        -0.145,
        0.35
      ],
      "scale": [
        0.74,
        0.018,
        0.38
      ]
    },
    {
      "mesh": 0,
      "name": "LaptopScreen_DarkMetal",
      "translation": [
        0,
        0.42,
        -0.78
      ],
      "rotation": [
        -0.257081,
        0,
        0,
        0.96639
      ],
      "scale": [
        2.35,
        1.28,
        0.08
      ]
    },
    {
      "mesh": 0,
      "name": "ScreenPanel_Glass",
      "translation": [
        0,
        0.48,
        -0.73
      ],
      "rotation": [
        -0.257081,
        0,
        0,
        0.96639
      ],
      "scale": [
        2.08,
        1.03,
        0.028
      ]
    },
    {
      "mesh": 0,
      "name": "ScreenGlow_RedAccent",
      "translation": [
        -0.72,
        0.56,
        -0.69
      ],
      "rotation": [
        -0.257081,
        0,
        0,
        0.96639
      ],
      "scale": [
        0.68,
        0.045,
        0.018
      ]
    },
    {
      "mesh": 0,
      "name": "ScreenGlow_CyanAccent",
      "translation": [
        0.48,
        0.29,
        -0.56
      ],
      "rotation": [
        -0.257081,
        0,
        0,
        0.96639
      ],
      "scale": [
        0.98,
        0.034,
        0.018
      ]
    },
    {
      "mesh": 0,
      "name": "FloatingTechCube_Glass",
      "translation": [
        0.78,
        0.78,
        0.08
      ],
      "rotation": [
        0.195923,
        0.212143,
        0.155593,
        0.944669
      ],
      "scale": [
        0.42,
        0.42,
        0.42
      ]
    },
    {
      "mesh": 0,
      "name": "CubeCore_RedAccent",
      "translation": [
        0.78,
        0.78,
        0.08
      ],
      "rotation": [
        0.195923,
        0.212143,
        0.155593,
        0.944669
      ],
      "scale": [
        0.18,
        0.18,
        0.18
      ]
    },
    {
      "mesh": 0,
      "name": "DeskPad_DarkMetal",
      "translation": [
        0,
        -0.42,
        0.05
      ],
      "scale": [
        3.35,
        0.06,
        1.95
      ]
    },
    {
      "mesh": 0,
      "name": "FrontGlow_RedAccent",
      "translation": [
        0,
        -0.105,
        0.81
      ],
      "scale": [
        2.35,
        0.022,
        0.028
      ]
    },
    {
      "mesh": 0,
      "name": "Key_0_0_DarkMetal",
      "translation": [
        -0.92,
        -0.105,
        -0.28
      ],
      "scale": [
        0.16,
        0.026,
        0.105
      ]
    },
    {
      "mesh": 0,
      "name": "Key_0_1_DarkMetal",
      "translation": [
        -0.655,
        -0.105,
        -0.28
      ],
      "scale": [
        0.16,
        0.026,
        0.105
      ]
    },
    {
      "mesh": 0,
      "name": "Key_0_2_DarkMetal",
      "translation": [
        -0.39,
        -0.105,
        -0.28
      ],
      "scale": [
        0.16,
        0.026,
        0.105
      ]
    },
    {
      "mesh": 0,
      "name": "Key_0_3_DarkMetal",
      "translation": [
        -0.125,
        -0.105,
        -0.28
      ],
      "scale": [
        0.16,
        0.026,
        0.105
      ]
    },
    {
      "mesh": 0,
      "name": "Key_0_4_DarkMetal",
      "translation": [
        0.14,
        -0.105,
        -0.28
      ],
      "scale": [
        0.16,
        0.026,
        0.105
      ]
    },
    {
      "mesh": 0,
      "name": "Key_0_5_DarkMetal",
      "translation": [
        0.40500000000000014,
        -0.105,
        -0.28
      ],
      "scale": [
        0.16,
        0.026,
        0.105
      ]
    },
    {
      "mesh": 0,
      "name": "Key_0_6_DarkMetal",
      "translation": [
        0.67,
        -0.105,
        -0.28
      ],
      "scale": [
        0.16,
        0.026,
        0.105
      ]
    },
    {
      "mesh": 0,
      "name": "Key_0_7_DarkMetal",
      "translation": [
        0.9349999999999999,
        -0.105,
        -0.28
      ],
      "scale": [
        0.16,
        0.026,
        0.105
      ]
    },
    {
      "mesh": 0,
      "name": "Key_1_0_DarkMetal",
      "translation": [
        -0.92,
        -0.105,
        -0.08500000000000002
      ],
      "scale": [
        0.16,
        0.026,
        0.105
      ]
    },
    {
      "mesh": 0,
      "name": "Key_1_1_DarkMetal",
      "translation": [
        -0.655,
        -0.105,
        -0.08500000000000002
      ],
      "scale": [
        0.16,
        0.026,
        0.105
      ]
    },
    {
      "mesh": 0,
      "name": "Key_1_2_DarkMetal",
      "translation": [
        -0.39,
        -0.105,
        -0.08500000000000002
      ],
      "scale": [
        0.16,
        0.026,
        0.105
      ]
    },
    {
      "mesh": 0,
      "name": "Key_1_3_DarkMetal",
      "translation": [
        -0.125,
        -0.105,
        -0.08500000000000002
      ],
      "scale": [
        0.16,
        0.026,
        0.105
      ]
    },
    {
      "mesh": 0,
      "name": "Key_1_4_DarkMetal",
      "translation": [
        0.14,
        -0.105,
        -0.08500000000000002
      ],
      "scale": [
        0.16,
        0.026,
        0.105
      ]
    },
    {
      "mesh": 0,
      "name": "Key_1_5_DarkMetal",
      "translation": [
        0.40500000000000014,
        -0.105,
        -0.08500000000000002
      ],
      "scale": [
        0.16,
        0.026,
        0.105
      ]
    },
    {
      "mesh": 0,
      "name": "Key_1_6_DarkMetal",
      "translation": [
        0.67,
        -0.105,
        -0.08500000000000002
      ],
      "scale": [
        0.16,
        0.026,
        0.105
      ]
    },
    {
      "mesh": 0,
      "name": "Key_1_7_DarkMetal",
      "translation": [
        0.9349999999999999,
        -0.105,
        -0.08500000000000002
      ],
      "scale": [
        0.16,
        0.026,
        0.105
      ]
    },
    {
      "mesh": 0,
      "name": "Key_2_0_DarkMetal",
      "translation": [
        -0.92,
        -0.105,
        0.10999999999999999
      ],
      "scale": [
        0.16,
        0.026,
        0.105
      ]
    },
    {
      "mesh": 0,
      "name": "Key_2_1_DarkMetal",
      "translation": [
        -0.655,
        -0.105,
        0.10999999999999999
      ],
      "scale": [
        0.16,
        0.026,
        0.105
      ]
    },
    {
      "mesh": 0,
      "name": "Key_2_2_DarkMetal",
      "translation": [
        -0.39,
        -0.105,
        0.10999999999999999
      ],
      "scale": [
        0.16,
        0.026,
        0.105
      ]
    },
    {
      "mesh": 0,
      "name": "Key_2_3_DarkMetal",
      "translation": [
        -0.125,
        -0.105,
        0.10999999999999999
      ],
      "scale": [
        0.16,
        0.026,
        0.105
      ]
    },
    {
      "mesh": 0,
      "name": "Key_2_4_DarkMetal",
      "translation": [
        0.14,
        -0.105,
        0.10999999999999999
      ],
      "scale": [
        0.16,
        0.026,
        0.105
      ]
    },
    {
      "mesh": 0,
      "name": "Key_2_5_DarkMetal",
      "translation": [
        0.40500000000000014,
        -0.105,
        0.10999999999999999
      ],
      "scale": [
        0.16,
        0.026,
        0.105
      ]
    },
    {
      "mesh": 0,
      "name": "Key_2_6_DarkMetal",
      "translation": [
        0.67,
        -0.105,
        0.10999999999999999
      ],
      "scale": [
        0.16,
        0.026,
        0.105
      ]
    },
    {
      "mesh": 0,
      "name": "Key_2_7_DarkMetal",
      "translation": [
        0.9349999999999999,
        -0.105,
        0.10999999999999999
      ],
      "scale": [
        0.16,
        0.026,
        0.105
      ]
    }
  ],
  "meshes": [
    {
      "name": "UnitBoxPrimitive",
      "primitives": [
        {
          "attributes": {
            "POSITION": 0,
            "NORMAL": 1
          },
          "indices": 2,
          "material": 0
        }
      ]
    }
  ],
  "materials": [
    {
      "name": "DefaultRuntimeMaterial",
      "pbrMetallicRoughness": {
        "baseColorFactor": [
          0.02,
          0.025,
          0.03,
          1
        ],
        "metallicFactor": 0.7,
        "roughnessFactor": 0.28
      }
    }
  ],
  "buffers": [
    {
      "uri": "data:application/octet-stream;base64,",
      "byteLength": 648
    }
  ],
  "bufferViews": [
    {
      "buffer": 0,
      "byteOffset": 0,
      "byteLength": 288,
      "target": 34962
    },
    {
      "buffer": 0,
      "byteOffset": 288,
      "byteLength": 288,
      "target": 34962
    },
    {
      "buffer": 0,
      "byteOffset": 576,
      "byteLength": 72,
      "target": 34963
    }
  ],
  "accessors": [
    {
      "bufferView": 0,
      "byteOffset": 0,
      "componentType": 5126,
      "count": 24,
      "type": "VEC3",
      "min": [
        -0.5,
        -0.5,
        -0.5
      ],
      "max": [
        0.5,
        0.5,
        0.5
      ]
    },
    {
      "bufferView": 1,
      "byteOffset": 0,
      "componentType": 5126,
      "count": 24,
      "type": "VEC3",
      "min": [
        -1,
        -1,
        -1
      ],
      "max": [
        1,
        1,
        1
      ]
    },
    {
      "bufferView": 2,
      "byteOffset": 0,
      "componentType": 5123,
      "count": 36,
      "type": "SCALAR",
      "min": [
        0
      ],
      "max": [
        23
      ]
    }
  ]
}